<?xml version="1.0" encoding="UTF-8" standalone="no"?><!DOCTYPE svg PUBLIC "-//W3C//DTD SVG 1.1//EN" "http://www.w3.org/Graphics/SVG/1.1/DTD/svg11.dtd"><svg width="100%" height="100%" viewBox="0 0 500 500" version="1.1" xmlns="http://www.w3.org/2000/svg" xmlns:xlink="http://www.w3.org/1999/xlink" xml:space="preserve" style="fill-rule:evenodd;clip-rule:evenodd;stroke-linejoin:round;stroke-miterlimit:2;"><rect x="0" y="0" width="500" height="500" style="fill:none;"/><g><path d="M417.5,0l-335,0c-28.25,0 -51.25,23 -51.25,51.5l0,338c0,28.5 23,51.5 51.25,51.5l283.5,0l-13.25,-46.25l32,29.75l30.25,28l53.75,47.5l0,-448.5c0,-28.5 -23,-51.5 -51.25,-51.5Zm-96.5,326.5c0,0 -9,-10.75 -16.5,-20.25c32.75,-9.25 45.25,-29.75 45.25,-29.75c-10.25,6.75 -20,11.5 -28.75,14.75c-12.5,5.25 -24.5,8.75 -36.25,10.75c-24,4.5 -46,3.25 -64.75,-0.25c-14.25,-2.75 -26.5,-6.75 -36.75,-10.75c-5.75,-2.25 -12,-5 -18.25,-8.5c-0.75,-0.5 -1.5,-0.75 -2.25,-1.25c-0.5,-0.25 -0.75,-0.5 -1,-0.75c-4.5,-2.5 -7,-4.25 -7,-4.25c0,0 12,20 43.75,29.5c-7.5,9.5 -16.75,20.75 -16.75,20.75c-55.25,-1.75 -76.25,-38 -76.25,-38c0,-80.5 36,-145.75 36,-145.75c36,-27 70.25,-26.25 70.25,-26.25l2.5,3c-45,13 -65.75,32.75 -65.75,32.75c0,0 5.5,-3 14.75,-7.25c26.75,-11.75 48,-15 56.75,-15.75c1.5,-0.25 2.75,-0.5 4.25,-0.5c15.25,-2 32.5,-2.5 50.5,-0.5c23.75,2.75 49.25,9.75 75.25,24c0,0 -19.75,-18.75 -62.25,-31.75l3.5,-4c0,0 34.25,-0.75 70.25,26.25c0,0 36,65.25 36,145.75c0,0 -21.25,36.25 -76.5,38Zm-116.25,-116.75c-14.25,0 -25.5,12.5 -25.5,27.75c0,15.25 11.5,27.75 25.5,27.75c14.25,0 25.5,-12.5 25.5,-27.75c0.25,-15.25 -11.25,-27.75 -25.5,-27.75m91.25,0c-14.25,0 -25.5,12.5 -25.5,27.75c0,15.25 11.5,27.75 25.5,27.75c14.25,0 25.5,-12.5 25.5,-27.75c0,-15.25 -11.25,-27.75 -25.5,-27.75"/></g></svg>