<?xml version="1.0" encoding="UTF-8" standalone="no"?><!DOCTYPE svg PUBLIC "-//W3C//DTD SVG 1.1//EN" "http://www.w3.org/Graphics/SVG/1.1/DTD/svg11.dtd"><svg width="100%" height="100%" viewBox="0 0 500 500" version="1.1" xmlns="http://www.w3.org/2000/svg" xmlns:xlink="http://www.w3.org/1999/xlink" xml:space="preserve" style="fill-rule:evenodd;clip-rule:evenodd;stroke-linejoin:round;stroke-miterlimit:2;"><rect id="Artboard1" x="0" y="0" width="500" height="500" style="fill:none;"/><g><path d="M500,251.519c0,-138.072 -111.929,-250 -250,-250c-138.071,0 -250,111.928 -250,250c0,124.782 91.421,228.208 210.938,246.962l-0.001,-174.697l-63.476,0l0,-72.265l63.476,0l0,-55.079c0,-62.656 37.324,-97.265 94.429,-97.265c27.352,0 55.962,4.883 55.962,4.883l0,61.523l-31.524,0c-31.056,0 -40.741,19.271 -40.741,39.042l0,46.896l69.335,0l-11.084,72.265l-58.252,0l0,174.697c119.517,-18.754 210.938,-122.18 210.938,-246.962Z"/></g></svg>