<?xml version="1.0" encoding="UTF-8" standalone="no"?><!DOCTYPE svg PUBLIC "-//W3C//DTD SVG 1.1//EN" "http://www.w3.org/Graphics/SVG/1.1/DTD/svg11.dtd"><svg width="100%" height="100%" viewBox="0 0 500 500" version="1.1" xmlns="http://www.w3.org/2000/svg" xmlns:xlink="http://www.w3.org/1999/xlink" xml:space="preserve" style="fill-rule:evenodd;clip-rule:evenodd;stroke-linejoin:round;stroke-miterlimit:2;"><rect x="0" y="0" width="500" height="500" style="fill:none;"/><g><path d="M500,94.932c-18.397,8.159 -38.167,13.673 -58.918,16.153c21.181,-12.696 37.445,-32.799 45.104,-56.752c-19.819,11.754 -41.773,20.291 -65.139,24.893c-18.713,-19.937 -45.373,-32.395 -74.877,-32.395c-56.653,0 -102.584,45.928 -102.584,102.578c0,8.04 0.909,15.87 2.657,23.377c-85.255,-4.278 -160.841,-45.117 -211.436,-107.178c-8.829,15.15 -13.888,32.772 -13.888,51.571c0,35.588 18.111,66.986 45.636,85.381c-16.817,-0.532 -32.633,-5.146 -46.465,-12.829c-0.007,0.428 -0.007,0.858 -0.007,1.289c0,49.702 35.36,91.163 82.287,100.585c-8.608,2.345 -17.67,3.598 -27.027,3.598c-6.61,0 -13.036,-0.642 -19.299,-1.84c13.053,40.755 50.937,70.412 95.825,71.241c-35.107,27.512 -79.339,43.911 -127.398,43.911c-8.28,0 -16.446,-0.484 -24.471,-1.432c45.397,29.105 99.318,46.086 157.248,46.086c188.683,0 291.861,-156.309 291.861,-291.865c0,-4.447 -0.098,-8.872 -0.296,-13.27c20.041,-14.463 37.434,-32.531 51.187,-53.102"/></g></svg>