<?xml version="1.0" encoding="UTF-8" standalone="no"?><!DOCTYPE svg PUBLIC "-//W3C//DTD SVG 1.1//EN" "http://www.w3.org/Graphics/SVG/1.1/DTD/svg11.dtd"><svg width="100%" height="100%" viewBox="0 0 500 500" version="1.1" xmlns="http://www.w3.org/2000/svg" xmlns:xlink="http://www.w3.org/1999/xlink" xml:space="preserve" style="fill-rule:evenodd;clip-rule:evenodd;stroke-linejoin:round;stroke-miterlimit:2;"><rect id="Artboard1" x="0" y="0" width="500" height="500" style="fill:none;"/><g><path d="M43.527,0l-32.609,86.958l0,347.792l119.509,0l0,65.25l65.246,0l65.182,-65.25l97.8,0l130.427,-130.38l0,-304.37l-445.555,0Zm43.443,43.452l358.65,0l0,239.135l-76.093,76.098l-119.527,0l-65.163,65.16l0,-65.16l-97.867,0l0,-315.233Zm119.556,217.424l43.474,0l0,-130.42l-43.474,0l0,130.42Zm119.535,0l43.465,0l0,-130.42l-43.465,0l0,130.42Z"/></g></svg>