<?xml version="1.0" encoding="UTF-8" standalone="no"?><!DOCTYPE svg PUBLIC "-//W3C//DTD SVG 1.1//EN" "http://www.w3.org/Graphics/SVG/1.1/DTD/svg11.dtd"><svg width="100%" height="100%" viewBox="0 0 500 500" version="1.1" xmlns="http://www.w3.org/2000/svg" xmlns:xlink="http://www.w3.org/1999/xlink" xml:space="preserve" style="fill-rule:evenodd;clip-rule:evenodd;stroke-linejoin:round;stroke-miterlimit:2;"><rect x="0" y="0" width="500" height="500" style="fill:none;"/><clipPath><rect x="0" y="0" width="500" height="500"/></clipPath><g clip-path="url(#_clip1)"><path d="M489.698,129.738c-5.764,-21.419 -22.651,-38.303 -44.067,-44.071c-39.127,-10.707 -195.636,-10.707 -195.636,-10.707c0,0 -156.505,0 -195.632,10.299c-21.004,5.764 -38.303,23.064 -44.067,44.479c-10.296,39.124 -10.296,120.262 -10.296,120.262c0,0 0,81.546 10.296,120.262c5.768,21.415 22.651,38.303 44.071,44.071c39.535,10.707 195.632,10.707 195.632,10.707c0,0 156.505,0 195.632,-10.299c21.419,-5.764 38.303,-22.652 44.071,-44.067c10.296,-39.128 10.296,-120.262 10.296,-120.262c0,0 0.412,-81.55 -10.3,-120.674Zm-289.534,195.22l130.145,-74.958l-130.145,-74.958l0,149.916Z"/></g></svg>