<?xml version="1.0" encoding="UTF-8" standalone="no"?>
<!DOCTYPE svg PUBLIC "-//W3C//DTD SVG 1.1//EN" "http://www.w3.org/Graphics/SVG/1.1/DTD/svg11.dtd">
<svg width="100%" height="100%" viewBox="0 0 500 500" version="1.1" xmlns="http://www.w3.org/2000/svg" xmlns:xlink="http://www.w3.org/1999/xlink" xml:space="preserve" xmlns:serif="http://www.serif.com/">
    <rect x="0" y="0" width="500" height="500"/>
    <g>
        <g transform="matrix(1.12489,0,0,1.12489,-1178.14,-312.283)">
            <g transform="matrix(0.381451,0,0,0.381451,1048.87,634.538)">
                <path d="M5.737,-706.154C4.788,-706.154 3.934,-706.729 3.577,-707.607C3.22,-708.486 3.432,-709.493 4.111,-710.155C33.71,-738.958 213.662,-914.073 232.615,-932.517C233.516,-933.393 234.949,-933.398 235.855,-932.527C247.801,-921.053 321.783,-849.99 329.318,-842.753C329.717,-842.369 329.967,-841.855 330.022,-841.304C331.994,-821.584 367.504,-466.496 373.235,-409.184C373.337,-408.158 374.102,-407.322 375.114,-407.127C376.126,-406.933 377.146,-407.426 377.621,-408.34C401.658,-454.552 538.44,-717.527 564.807,-768.219C565.302,-769.172 566.385,-769.663 567.428,-769.408C568.471,-769.153 569.205,-768.218 569.205,-767.144C569.205,-717.703 569.205,-492.292 569.205,-481.165C569.205,-480.883 569.154,-480.603 569.054,-480.339C563.008,-464.386 377.711,24.558 374.067,34.172C374.027,34.277 373.995,34.384 373.97,34.493C373.718,35.687 372.347,42.616 373.871,47.675C374.124,48.392 374.007,49.188 373.56,49.803C364.593,62.15 273.201,187.617 249.449,220.224C248.815,221.093 247.67,221.415 246.676,221.004C245.682,220.593 245.099,219.556 245.264,218.493C252.785,167.316 286.398,-81.744 259.417,-277.362C230.797,-484.848 180.161,-683.866 174.865,-704.411C174.598,-705.438 173.671,-706.154 172.61,-706.154C156.273,-706.154 33.838,-706.154 5.737,-706.154Z"/>
            </g>
            <g transform="matrix(-0.381451,0,0,0.381451,1490.3,634.538)">
                <path d="M5.737,-706.154C4.788,-706.154 3.934,-706.729 3.577,-707.607C3.22,-708.486 3.432,-709.493 4.111,-710.155C33.71,-738.958 213.662,-914.073 232.615,-932.517C233.516,-933.393 234.949,-933.398 235.855,-932.527C247.801,-921.053 321.783,-849.99 329.318,-842.753C329.717,-842.369 329.967,-841.855 330.022,-841.304C331.994,-821.584 367.504,-466.496 373.235,-409.184C373.337,-408.158 374.102,-407.322 375.114,-407.127C376.126,-406.933 377.146,-407.426 377.621,-408.34C401.658,-454.552 538.44,-717.527 564.807,-768.219C565.302,-769.172 566.385,-769.663 567.428,-769.408C568.471,-769.153 569.205,-768.218 569.205,-767.144C569.205,-717.703 569.205,-492.292 569.205,-481.165C569.205,-480.883 569.154,-480.603 569.054,-480.339C563.008,-464.386 377.711,24.558 374.067,34.172C374.027,34.277 373.995,34.384 373.97,34.493C373.718,35.687 372.347,42.616 373.871,47.675C374.124,48.392 374.007,49.188 373.56,49.803C364.593,62.15 273.201,187.617 249.449,220.224C248.815,221.093 247.67,221.415 246.676,221.004C245.682,220.593 245.099,219.556 245.264,218.493C252.785,167.316 286.398,-81.744 259.417,-277.362C230.797,-484.848 180.161,-683.866 174.865,-704.411C174.598,-705.438 173.671,-706.154 172.61,-706.154C156.273,-706.154 33.838,-706.154 5.737,-706.154Z"/>
            </g>
        </g>
    </g>
</svg>
